<?xml version="1.0" encoding="UTF-8"?>
<svg width="81px" height="47px" viewBox="0 0 81 47" version="1.1" xmlns="http://www.w3.org/2000/svg" xmlns:xlink="http://www.w3.org/1999/xlink">
    <!-- Generator: Sketch 55.2 (78181) - https://sketchapp.com -->
    <title>Group 7</title>
    <desc>Created with Sketch.</desc>
    <g id="Page-1" stroke="none" stroke-width="1" fill="none" fill-rule="evenodd">
        <g id="Desktop-HD" transform="translate(-613.000000, -34.000000)">
            <g id="hero">
                <g id="Group" transform="translate(401.000000, 28.000000)">
                    <g id="logo" transform="translate(212.000000, 0.000000)">
                        <g id="Group-7" transform="translate(0.000000, 6.000000)">
                            <g id="Batti---Super-Happy"></g>
                            <g id="Battery-(Stroke)" fill="#F4F6F6" fill-rule="nonzero">
                                <g id="path0_fill-link">
                                    <path d="M0,11.2894737 C0,5.05447377 5.08981974,0 11.3684211,0 L58.2631579,0 C64.5417237,0 69.6315789,5.05447377 69.6315789,11.2894737 L69.6315789,35.2796053 C69.6315789,41.5145699 64.5417237,46.5690789 58.2631579,46.5690789 L11.3684211,46.5690789 C5.08981974,46.5690789 0,41.5145699 0,35.2796053 L0,11.2894737 Z M11.3684211,5.64473684 C8.22910263,5.64473684 5.68421053,8.17195609 5.68421053,11.2894737 L5.68421053,35.2796053 C5.68421053,38.397264 8.22910263,40.9243421 11.3684211,40.9243421 L58.2631579,40.9243421 C61.4026184,40.9243421 63.9473684,38.397264 63.9473684,35.2796053 L63.9473684,11.2894737 C63.9473684,8.17195609 61.4026184,5.64473684 58.2631579,5.64473684 L11.3684211,5.64473684 Z M78.1578947,14.1118421 C79.7274474,14.1118421 81,15.3754517 81,16.9342105 L81,29.6348684 C81,31.1936272 79.7274474,32.4572368 78.1578947,32.4572368 C76.5883421,32.4572368 75.3157895,31.1936272 75.3157895,29.6348684 L75.3157895,16.9342105 C75.3157895,15.3754517 76.5883421,14.1118421 78.1578947,14.1118421 Z" id="path0_fill"></path>
                                </g>
                            </g>
                            <g id="Face" transform="translate(20.463158, 9.378947)" fill="#F4F6F6">
                                <g id="Smile" transform="translate(0.358537, 16.433726)">
                                    <g id="path1_fill-link" transform="translate(0.002868, 0.312940)">
                                        <path d="M28.3978902,0 C26.1749634,5.52802562 20.6732195,9.48435769 14.1989451,9.48435769 C7.72467073,9.48435769 2.22292683,5.52802562 0,0 L28.3978902,0 Z" id="path1_fill"></path>
                                    </g>
                                </g>
                                <g id="Happy-Eyes">
                                    <g id="path2_fill-link" transform="translate(17.209756, 0.000000)">
                                        <polygon id="path2_fill" points="3.07445122 8.61721641 0.129073171 5.74481094 6.01982927 0 11.9105854 5.74481094 8.96520732 8.61721641 6.01982927 5.74481094"></polygon>
                                    </g>
                                    <g id="path3_fill-link">
                                        <polygon id="path3_fill" points="8.83613415 8.61721641 5.8907561 5.74481094 2.94537805 8.61721641 0 5.74481094 5.8907561 0 11.7815122 5.74481094"></polygon>
                                    </g>
                                </g>
                            </g>
                        </g>
                    </g>
                </g>
            </g>
        </g>
    </g>
</svg>